# File produced by Open Asset Import Library (http://www.assimp.sf.net)
# (assimp v6.0.0)

mtllib beveled_cube.mtl

# 96 vertex positions
v -0.460000008 -0.460000008 0.5
v 0.460000008 -0.460000008 0.5
v 0.460000008 0.460000008 0.5
v -0.460000008 0.460000008 0.5
v -0.460000008 -0.460000008 -0.5
v 0.460000008 0.460000008 -0.5
v 0.460000008 -0.460000008 -0.5
v -0.460000008 0.460000008 -0.5
v 0.5 -0.460000008 0.460000008
v 0.5 -0.460000008 -0.460000008
v 0.5 0.460000008 -0.460000008
v 0.5 0.460000008 0.460000008
v -0.5 -0.460000008 0.460000008
v -0.5 0.460000008 -0.460000008
v -0.5 -0.460000008 -0.460000008
v -0.5 0.460000008 0.460000008
v -0.460000008 0.5 0.460000008
v 0.460000008 0.5 0.460000008
v 0.460000008 0.5 -0.460000008
v -0.460000008 0.5 -0.460000008
v -0.460000008 -0.5 0.460000008
v 0.460000008 -0.5 -0.460000008
v 0.460000008 -0.5 0.460000008
v -0.460000008 -0.5 -0.460000008
v -0.5 -0.460000008 0.460000008
v -0.460000008 0.460000008 0.5
v -0.5 0.460000008 0.460000008
v -0.460000008 -0.460000008 0.5
v 0.5 -0.460000008 0.460000008
v 0.5 0.460000008 0.460000008
v 0.460000008 0.460000008 0.5
v 0.460000008 -0.460000008 0.5
v -0.460000008 -0.5 0.460000008
v 0.460000008 -0.5 0.460000008
v 0.460000008 -0.460000008 0.5
v -0.460000008 -0.460000008 0.5
v -0.460000008 0.5 0.460000008
v 0.460000008 0.460000008 0.5
v 0.460000008 0.5 0.460000008
v -0.460000008 0.460000008 0.5
v -0.5 -0.460000008 -0.460000008
v -0.5 0.460000008 -0.460000008
v -0.460000008 0.460000008 -0.5
v -0.460000008 -0.460000008 -0.5
v 0.5 -0.460000008 -0.460000008
v 0.460000008 0.460000008 -0.5
v 0.5 0.460000008 -0.460000008
v 0.460000008 -0.460000008 -0.5
v -0.460000008 -0.5 -0.460000008
v 0.460000008 -0.460000008 -0.5
v 0.460000008 -0.5 -0.460000008
v -0.460000008 -0.460000008 -0.5
v -0.460000008 0.5 -0.460000008
v 0.460000008 0.5 -0.460000008
v 0.460000008 0.460000008 -0.5
v -0.460000008 0.460000008 -0.5
v -0.5 0.460000008 0.460000008
v -0.460000008 0.5 -0.460000008
v -0.5 0.460000008 -0.460000008
v -0.460000008 0.5 0.460000008
v 0.5 0.460000008 0.460000008
v 0.5 0.460000008 -0.460000008
v 0.460000008 0.5 -0.460000008
v 0.460000008 0.5 0.460000008
v -0.5 -0.460000008 0.460000008
v -0.5 -0.460000008 -0.460000008
v -0.460000008 -0.5 -0.460000008
v -0.460000008 -0.5 0.460000008
v 0.5 -0.460000008 0.460000008
v 0.460000008 -0.5 -0.460000008
v 0.5 -0.460000008 -0.460000008
v 0.460000008 -0.5 0.460000008
v -0.5 -0.460000008 0.460000008
v -0.460000008 -0.5 0.460000008
v -0.460000008 -0.460000008 0.5
v 0.5 -0.460000008 0.460000008
v 0.460000008 -0.460000008 0.5
v 0.460000008 -0.5 0.460000008
v -0.5 0.460000008 0.460000008
v -0.460000008 0.460000008 0.5
v -0.460000008 0.5 0.460000008
v 0.5 0.460000008 0.460000008
v 0.460000008 0.5 0.460000008
v 0.460000008 0.460000008 0.5
v -0.5 -0.460000008 -0.460000008
v -0.460000008 -0.460000008 -0.5
v -0.460000008 -0.5 -0.460000008
v 0.5 -0.460000008 -0.460000008
v 0.460000008 -0.5 -0.460000008
v 0.460000008 -0.460000008 -0.5
v -0.5 0.460000008 -0.460000008
v -0.460000008 0.5 -0.460000008
v -0.460000008 0.460000008 -0.5
v 0.5 0.460000008 -0.460000008
v 0.460000008 0.460000008 -0.5
v 0.460000008 0.5 -0.460000008

# 4 UV coordinates
vt 0 0 0
vt 1 0 0
vt 1 1 0
vt 0 1 0

# 6 vertex normals
vn 0 0 1
vn 0 0 -1
vn 1 0 0
vn -1 0 0
vn 0 1 0
vn 0 -1 0

# Mesh '' with 44 faces
usemtl $Material_0
f  1/1/1 2/2/1 3/3/1
f  1/1/1 3/3/1 4/4/1
f  5/1/2 6/3/2 7/2/2
f  5/1/2 8/4/2 6/3/2
f  9/1/3 10/2/3 11/3/3
f  9/1/3 11/3/3 12/4/3
f  13/1/4 14/3/4 15/2/4
f  13/1/4 16/4/4 14/3/4
f  17/1/5 18/2/5 19/3/5
f  17/1/5 19/3/5 20/4/5
f  21/1/6 22/3/6 23/2/6
f  21/1/6 24/4/6 22/3/6
f  25/1/4 26/3/1 27/2/4
f  25/1/4 28/4/1 26/3/1
f  29/1/3 30/2/3 31/3/1
f  29/1/3 31/3/1 32/4/1
f  33/1/6 34/2/6 35/3/1
f  33/1/6 35/3/1 36/4/1
f  37/1/5 38/3/1 39/2/5
f  37/1/5 40/4/1 38/3/1
f  41/1/4 42/2/4 43/3/2
f  41/1/4 43/3/2 44/4/2
f  45/1/3 46/3/2 47/2/3
f  45/1/3 48/4/2 46/3/2
f  49/1/6 50/3/2 51/2/6
f  49/1/6 52/4/2 50/3/2
f  53/1/5 54/2/5 55/3/2
f  53/1/5 55/3/2 56/4/2
f  57/1/4 58/3/5 59/2/4
f  57/1/4 60/4/5 58/3/5
f  61/1/3 62/2/3 63/3/5
f  61/1/3 63/3/5 64/4/5
f  65/1/4 66/2/4 67/3/6
f  65/1/4 67/3/6 68/4/6
f  69/1/3 70/3/6 71/2/3
f  69/1/3 72/4/6 70/3/6
f  73/1/4 74/2/6 75/3/1
f  76/1/3 77/3/1 78/2/6
f  79/1/4 80/3/1 81/2/5
f  82/1/3 83/2/5 84/3/1
f  85/1/4 86/3/2 87/2/6
f  88/1/3 89/2/6 90/3/2
f  91/1/4 92/2/5 93/3/2
f  94/1/3 95/3/2 96/2/5

